<svg width="16" height="16" viewBox="0 0 16 16" fill="none" xmlns="http://www.w3.org/2000/svg">
<g clip-path="url(#clip0_1_524)">
<path fill-rule="evenodd" clip-rule="evenodd" d="M8 0C3.58351 0 0 3.58351 0 8C0 12.4165 3.58351 16 8 16C12.4078 16 16 12.4165 16 8C16 3.58351 12.4078 0 8 0ZM13.2841 3.68763C14.2386 4.85032 14.8113 6.33405 14.8286 7.93928C14.603 7.89592 12.347 7.436 10.0738 7.72236C10.0217 7.60955 9.97829 7.48805 9.92625 7.3666C9.78743 7.0369 9.63124 6.6985 9.47505 6.37745C11.9913 5.3536 13.1367 3.87852 13.2841 3.68763ZM8 1.18005C9.73531 1.18005 11.3232 1.8308 12.5293 2.89805C12.4078 3.07159 11.3752 4.45119 8.94575 5.36225C7.82644 3.30585 6.5857 1.62256 6.3948 1.36226C6.9067 1.24078 7.4447 1.18005 8 1.18005ZM5.0933 1.82213C5.2755 2.06507 6.49025 3.75705 7.62689 5.77005C4.43384 6.6204 1.61388 6.60305 1.31019 6.60305C1.75271 4.4859 3.18438 2.72451 5.0933 1.82213ZM1.16269 8.00869C1.16269 7.93928 1.16269 7.86987 1.16269 7.80046C1.4577 7.80907 4.77224 7.8525 8.18217 6.82865C8.38179 7.2104 8.56396 7.60085 8.73752 7.99131C8.65074 8.01737 8.55528 8.04343 8.46857 8.06941C4.94577 9.20602 3.07159 12.3124 2.9154 12.5726C1.8308 11.3666 1.16269 9.76137 1.16269 8.00869ZM8 14.8373C6.4208 14.8373 4.96312 14.2994 3.80911 13.397C3.93058 13.1454 5.31885 10.4729 9.17135 9.128C9.18872 9.11931 9.19741 9.11931 9.21478 9.11063C10.1778 11.6008 10.5684 13.692 10.6725 14.2907C9.84815 14.6464 8.94575 14.8373 8 14.8373ZM11.8091 13.666C11.7397 13.2494 11.3752 11.2538 10.4815 8.79825C12.6248 8.45989 14.4989 9.01516 14.7332 9.09333C14.4382 10.9935 13.3449 12.6334 11.8091 13.666Z" fill="white"/>
</g>
<defs>
<clipPath id="clip0_1_524">
<rect width="16" height="16" fill="white"/>
</clipPath>
</defs>
</svg>
