<svg width="16" height="16" viewBox="0 0 16 16" fill="none" xmlns="http://www.w3.org/2000/svg">
<g clip-path="url(#clip0_1_517)">
<path d="M14.8156 0H1.18125C0.528125 0 0 0.515625 0 1.15313V14.8437C0 15.4812 0.528125 16 1.18125 16H14.8156C15.4687 16 16 15.4812 16 14.8469V1.15313C16 0.515625 15.4687 0 14.8156 0ZM4.74687 13.6344H2.37188V5.99688H4.74687V13.6344ZM3.55938 4.95625C2.79688 4.95625 2.18125 4.34062 2.18125 3.58125C2.18125 2.82187 2.79688 2.20625 3.55938 2.20625C4.31875 2.20625 4.93438 2.82187 4.93438 3.58125C4.93438 4.3375 4.31875 4.95625 3.55938 4.95625ZM13.6344 13.6344H11.2625V9.9219C11.2625 9.03749 11.2469 7.89684 10.0281 7.89684C8.79375 7.89684 8.60625 8.86248 8.60625 9.85935V13.6344H6.2375V5.99688H8.51253V7.04062H8.54377C8.85935 6.44062 9.63436 5.80625 10.7875 5.80625C13.1906 5.80625 13.6344 7.3875 13.6344 9.44373V13.6344Z" fill="white"/>
</g>
<defs>
<clipPath id="clip0_1_517">
<rect width="16" height="16" fill="white"/>
</clipPath>
</defs>
</svg>
