<svg width="16" height="16" viewBox="0 0 16 16" fill="none" xmlns="http://www.w3.org/2000/svg">
<g clip-path="url(#clip0_1_521)">
<path d="M15.9693 3.04574C15.3793 3.30507 14.7493 3.48174 14.086 3.5624C14.762 3.15507 15.282 2.51307 15.528 1.74707C14.894 2.11707 14.1913 2.3864 13.4433 2.5364C12.846 1.89707 11.9947 1.49707 11.0493 1.49707C9.238 1.49707 7.76933 2.96574 7.76933 4.77507C7.76933 5.03507 7.79933 5.28507 7.854 5.5244C5.12733 5.39574 2.71067 4.0864 1.09333 2.10707C0.808667 2.5884 0.649333 3.14774 0.649333 3.75707C0.649333 4.89707 1.22933 5.89907 2.108 6.48774C1.57 6.4704 1.064 6.3224 0.622667 6.07707V6.11774C0.622667 7.70776 1.75133 9.03376 3.25333 9.33576C2.978 9.40976 2.68733 9.44976 2.38933 9.44976C2.18 9.44976 1.97933 9.42976 1.77867 9.39242C2.19933 10.6944 3.40867 11.6438 4.848 11.6704C3.728 12.5498 2.30867 13.0738 0.78 13.0738C0.52 13.0738 0.260667 13.0584 0 13.0291C1.45933 13.9584 3.17867 14.5018 5.038 14.5018C11.074 14.5018 14.3707 9.50442 14.3707 5.17774C14.3707 5.0384 14.3707 4.89774 14.3607 4.75774C15.0013 4.2984 15.5607 3.71774 16.0007 3.05907L15.9693 3.04574Z" fill="white"/>
</g>
<defs>
<clipPath id="clip0_1_521">
<rect width="16" height="16" fill="white"/>
</clipPath>
</defs>
</svg>
